G04 MADE WITH FRITZING*
G04 WWW.FRITZING.ORG*
G04 DOUBLE SIDED*
G04 HOLES PLATED*
G04 CONTOUR ON CENTER OF CONTOUR VECTOR*
%ASAXBY*%
%FSLAX23Y23*%
%MOIN*%
%OFA0B0*%
%SFA1.0B1.0*%
%ADD10C,0.053307*%
%ADD11C,0.084000*%
%ADD12C,0.085000*%
%ADD13C,0.135984*%
%ADD14C,0.080000*%
%ADD15C,0.088000*%
%ADD16C,0.092000*%
%ADD17R,0.085000X0.085000*%
%ADD18R,0.079972X0.080000*%
%ADD19R,0.092000X0.092000*%
%LNMASK1*%
G90*
G70*
G54D10*
X3646Y561D03*
X744Y2461D03*
X744Y2761D03*
X3044Y3061D03*
X1643Y2660D03*
X1643Y3061D03*
X2544Y3061D03*
X2646Y2660D03*
X2646Y2160D03*
X1044Y961D03*
X1144Y861D03*
X3344Y2461D03*
X3344Y1761D03*
X1044Y1861D03*
X1144Y1861D03*
X1544Y762D03*
X1444Y661D03*
X1344Y562D03*
X1243Y461D03*
X1644Y1061D03*
X1744Y1161D03*
X1243Y1361D03*
X1344Y1361D03*
X1445Y1361D03*
X1543Y1361D03*
X1644Y1361D03*
X1744Y1361D03*
G54D11*
X2894Y1886D03*
X2844Y1961D03*
X2794Y1886D03*
G54D10*
X3844Y1561D03*
X3443Y1262D03*
X3444Y761D03*
X3544Y861D03*
X3246Y859D03*
X2244Y661D03*
X2244Y1061D03*
X3044Y661D03*
X3044Y1161D03*
X2344Y1261D03*
X2345Y960D03*
X2444Y1261D03*
X2445Y860D03*
X3145Y561D03*
X3145Y960D03*
X2844Y461D03*
X2844Y1461D03*
X3344Y1261D03*
X3344Y1660D03*
X2544Y2361D03*
X3144Y361D03*
X3744Y961D03*
X3744Y661D03*
G54D12*
X3544Y1861D03*
X3545Y2861D03*
X1644Y761D03*
X2044Y761D03*
X1644Y661D03*
X2044Y661D03*
X1644Y561D03*
X2044Y561D03*
X1844Y1161D03*
X2244Y1161D03*
X1744Y1061D03*
X2144Y1061D03*
X1644Y461D03*
X2044Y461D03*
X2744Y461D03*
X2444Y461D03*
X2744Y561D03*
X2444Y561D03*
X2744Y661D03*
X2444Y661D03*
X2744Y761D03*
X2444Y761D03*
X3544Y461D03*
X3244Y461D03*
X3544Y561D03*
X3244Y561D03*
X3544Y661D03*
X3244Y661D03*
X3544Y761D03*
X3244Y761D03*
X3244Y1361D03*
X3544Y1361D03*
X3244Y1261D03*
X3544Y1261D03*
X3244Y1161D03*
X3544Y1161D03*
X3244Y1061D03*
X3544Y1061D03*
X3244Y261D03*
X3644Y261D03*
X2544Y261D03*
X2944Y261D03*
X3244Y161D03*
X3644Y161D03*
X2544Y161D03*
X2944Y161D03*
X3644Y361D03*
X3244Y361D03*
X2944Y361D03*
X2544Y361D03*
X2744Y1461D03*
X3144Y1461D03*
X3244Y1461D03*
X3644Y1461D03*
X2744Y1261D03*
X3144Y1261D03*
G54D13*
X2649Y1741D03*
G54D14*
X2144Y1361D03*
X2244Y1361D03*
X2344Y1361D03*
X2444Y1361D03*
G54D13*
X2140Y1741D03*
G54D14*
X2544Y1361D03*
X2644Y1361D03*
G54D15*
X3044Y161D03*
X3144Y161D03*
X2244Y161D03*
X2344Y161D03*
X3744Y1161D03*
X3744Y1061D03*
G54D12*
X1544Y2461D03*
X1544Y2861D03*
X1444Y2461D03*
X1444Y2861D03*
X1344Y2461D03*
X1344Y2861D03*
X1244Y2461D03*
X1244Y2861D03*
G54D14*
X3644Y2861D03*
X3744Y2861D03*
G54D15*
X1444Y3061D03*
X1344Y3061D03*
X1244Y3061D03*
X244Y1561D03*
X244Y1461D03*
X244Y1361D03*
X244Y1261D03*
X244Y1161D03*
X244Y1061D03*
X244Y961D03*
X244Y861D03*
X244Y761D03*
X244Y661D03*
X244Y561D03*
X244Y461D03*
X244Y361D03*
X244Y261D03*
X244Y161D03*
X244Y2861D03*
X244Y2761D03*
X244Y2661D03*
X244Y2561D03*
X2144Y761D03*
X2144Y661D03*
X2144Y561D03*
X2144Y461D03*
X2944Y2161D03*
X2844Y2161D03*
X3244Y2461D03*
X3244Y2561D03*
X3244Y2661D03*
X3644Y1661D03*
X3544Y1661D03*
X3444Y1661D03*
G54D12*
X2244Y2361D03*
X1944Y2361D03*
X2244Y2461D03*
X1944Y2461D03*
X2244Y2561D03*
X1944Y2561D03*
X2244Y2661D03*
X1944Y2661D03*
X2244Y2861D03*
X1844Y2861D03*
X2544Y2561D03*
X2544Y2161D03*
X2444Y2861D03*
X2844Y2861D03*
G54D11*
X2194Y2036D03*
X2244Y1961D03*
X2294Y2036D03*
G54D12*
X2444Y2161D03*
X2444Y2561D03*
G54D14*
X1544Y2361D03*
X1444Y2361D03*
X1344Y2361D03*
X1244Y2361D03*
X1144Y2361D03*
X1044Y2361D03*
X944Y2361D03*
X844Y2361D03*
X744Y2361D03*
X644Y2361D03*
G54D12*
X3044Y2361D03*
X2744Y2361D03*
X3044Y2461D03*
X2744Y2461D03*
X3044Y2561D03*
X2744Y2561D03*
X3044Y2661D03*
X2744Y2661D03*
G54D14*
X344Y1561D03*
X344Y1461D03*
X344Y1361D03*
X344Y1261D03*
X344Y1161D03*
X344Y1061D03*
X344Y961D03*
X344Y861D03*
X344Y761D03*
X344Y661D03*
X344Y561D03*
X344Y461D03*
X344Y361D03*
X344Y261D03*
X344Y161D03*
X944Y1561D03*
X944Y1461D03*
X944Y1361D03*
X944Y1261D03*
X944Y1161D03*
X944Y1061D03*
X944Y961D03*
X944Y861D03*
X944Y761D03*
X944Y661D03*
X944Y561D03*
X944Y461D03*
X944Y361D03*
X944Y261D03*
X944Y161D03*
G54D12*
X344Y2361D03*
X344Y2461D03*
X344Y2661D03*
X344Y2761D03*
X344Y2861D03*
G54D16*
X1244Y2261D03*
X1244Y1963D03*
X1244Y1463D03*
X1244Y1761D03*
X1544Y1463D03*
X1544Y1761D03*
X1444Y1463D03*
X1444Y1761D03*
X1744Y1463D03*
X1744Y1761D03*
X1644Y1463D03*
X1644Y1761D03*
X1544Y2261D03*
X1544Y1963D03*
X1444Y2261D03*
X1444Y1963D03*
X1344Y2261D03*
X1344Y1963D03*
X1344Y1463D03*
X1344Y1761D03*
G54D13*
X89Y3061D03*
X91Y96D03*
X3844Y97D03*
X3844Y3061D03*
G54D17*
X2744Y461D03*
X3544Y461D03*
X3244Y1361D03*
X2244Y2361D03*
X3044Y2361D03*
G54D18*
X344Y1561D03*
G54D17*
X344Y2361D03*
G54D19*
X1244Y2262D03*
X1244Y1462D03*
X1544Y1462D03*
X1444Y1462D03*
X1744Y1462D03*
X1644Y1462D03*
X1544Y2262D03*
X1444Y2262D03*
X1344Y2262D03*
X1344Y1462D03*
G04 End of Mask1*
M02*