; NON-PLATED HOLES START AT T1
; THROUGH (PLATED) HOLES START AT T100
M48
INCH
T1C0.125984
T100C0.032000
T101C0.039370
T102C0.027559
T103C0.036000
T104C0.038000
T105C0.030000
T106C0.042000
T107C0.098425
T108C0.035000
%
T1
X000907Y000959
X000888Y030607
X038444Y000966
X038444Y030607
T100
X022444Y019607
X022944Y020357
X021944Y020357
X028944Y018857
X028444Y019607
X027944Y018857
T101
X015444Y023607
X013444Y023607
X008444Y023607
X006444Y023607
X009444Y023607
X022444Y013607
X011444Y023607
X014444Y023607
X023444Y013607
X007444Y023607
X012444Y023607
X024444Y013607
X021444Y013607
X026444Y013607
X025444Y013607
X010444Y023607
T102
X031444Y003607
X023445Y009602
X033443Y012611
X013444Y005622
X010444Y018607
X030444Y011607
X011444Y018607
X015432Y013607
X017444Y013607
X026458Y026596
X028444Y004607
X016444Y013607
X013439Y013607
X022444Y006607
X026458Y021598
X031447Y005611
X012432Y004610
X017444Y011607
X036455Y005605
X012427Y013607
X025444Y030607
X037444Y009607
X023444Y012607
X032456Y008593
X034428Y012615
X011444Y008607
X007444Y024607
X010439Y009608
X035444Y008607
X022444Y010607
X025444Y023607
X015438Y007615
X031447Y009603
X034444Y007607
X024444Y012607
X014444Y006607
X016431Y026596
X024448Y008599
X030444Y030607
X038444Y015607
X033444Y017607
X037444Y006607
X007444Y027607
X033444Y024607
X016444Y010607
X016431Y030613
X033443Y016602
X028444Y014607
X014451Y013607
X030444Y006607
T103
X009444Y015607
X003444Y014607
X009444Y013607
X003444Y001607
X003444Y002607
X003444Y005607
X003444Y010607
X009444Y001607
X009444Y008607
X009444Y011607
X003444Y007607
X009444Y006607
X009444Y010607
X003444Y009607
X003444Y015607
X003444Y008607
X009444Y004607
X009444Y014607
X009444Y005607
X003444Y013607
X009444Y007607
X009444Y012607
X003444Y006607
X009444Y002607
X009444Y003607
X003444Y003607
X003444Y012607
X003444Y011607
X009444Y009607
X003444Y004607
T104
X014444Y030607
X036444Y016607
X031444Y001607
X002444Y014607
X002444Y001607
X002444Y026607
X022444Y001607
X013444Y030607
X002444Y027607
X035444Y016607
X030444Y001607
X002444Y008607
X002444Y007607
X002444Y003607
X021444Y004607
X002444Y009607
X021444Y005607
X002444Y011607
X002444Y006607
X032444Y024607
X021444Y007607
X037444Y011607
X032444Y025607
X012444Y030607
X002444Y028607
X002444Y004607
X002444Y002607
X034444Y016607
X037444Y010607
X002444Y005607
X028444Y021607
X029444Y021607
X002444Y013607
X021444Y006607
X002444Y025607
X032444Y026607
X002444Y015607
X002444Y010607
X002444Y012607
X023444Y001607
T105
X036444Y028607
X037444Y028607
T106
X015444Y019627
X013444Y017607
X013444Y022607
X014444Y017607
X012444Y022607
X012444Y017607
X017444Y014627
X014444Y019627
X012444Y019627
X013444Y014627
X015444Y022607
X012444Y014627
X014444Y022607
X015444Y017607
X015444Y014627
X013444Y019627
X016444Y014627
X016444Y017607
X014444Y014627
X017444Y017607
T107
X026487Y017407
X021401Y017407
T108
X030444Y024607
X022444Y025607
X035444Y010607
X032444Y014607
X027444Y005607
X025444Y025607
X017444Y010607
X020444Y004607
X032444Y010607
X024444Y005607
X025444Y003607
X036444Y002607
X024444Y025607
X014444Y024607
X021444Y010607
X019444Y025607
X024444Y021607
X012444Y028607
X020444Y005607
X035444Y011607
X024444Y007607
X022444Y023607
X027444Y023607
X027444Y025607
X024444Y028607
X019444Y023607
X014444Y028607
X022444Y026607
X035444Y018607
X003444Y028607
X025444Y002607
X032444Y013607
X032444Y007607
X027444Y004607
X020444Y006607
X035445Y028607
X018444Y011607
X003444Y027607
X013444Y028607
X032444Y002607
X032444Y012607
X022444Y028607
X022444Y011607
X012444Y024607
X016444Y005607
X015444Y024607
X027444Y026607
X016444Y006607
X003444Y023607
X032444Y004607
X016444Y007607
X020444Y007607
X027444Y014607
X013444Y024607
X035444Y013607
X035444Y012607
X035444Y004607
X036444Y003607
X032444Y001607
X032444Y005607
X036444Y014607
X032444Y006607
X016444Y004607
X003444Y026607
X029444Y002607
X027444Y012607
X028444Y028607
X031444Y014607
X024444Y006607
X035444Y006607
X027444Y006607
X019444Y024607
X025444Y001607
X029444Y001607
X035444Y005607
X018444Y028607
X019444Y026607
X003444Y024607
X031444Y012607
X024444Y004607
X022444Y024607
X030444Y025607
X032444Y011607
X030444Y026607
X032444Y003607
X025444Y021607
X015444Y028607
X035444Y007607
X036444Y001607
X027444Y007607
X027444Y024607
X029444Y003607
X030444Y023607
T00
M30
